<?xml version="1.0" encoding="utf-8"?>
<!-- Generator: Adobe Illustrator 25.0.1, SVG Export Plug-In . SVG Version: 6.00 Build 0)  -->
<svg version="1.1" id="Capa_1" xmlns="http://www.w3.org/2000/svg" xmlns:xlink="http://www.w3.org/1999/xlink" x="0px" y="0px"
	 viewBox="0 0 40 40" style="enable-background:new 0 0 40 40;" xml:space="preserve">
<style type="text/css">
	.st0{fill:#FC23D1;}
</style>
<g>
	<path class="st0" d="M28.3,29.3c-0.4,0-0.8,0.1-1.1,0.4l-1.5-3.3c0.3-0.3,0.7-0.6,1-1c5.3-5.3,8.2-12,7.8-18c0-0.8-0.7-1.5-1.5-1.5
		C29.8,5.7,26.3,6.4,22.9,8c-0.3,0.1-0.4,0.5-0.3,0.8c0.1,0.3,0.5,0.4,0.8,0.3C24.3,8.7,25.1,8.3,26,8c0.3,1.6,1.1,3,2.2,4.1
		c1.1,1.1,2.6,1.9,4.1,2.2c-0.2,0.6-0.4,1.1-0.6,1.7c-1.3,3-3.3,6-5.8,8.5c-2,2-4.3,3.7-6.6,4.9l-2.8-2.8c0.7-0.8,0.7-1.9,0-2.7
		c-0.4-0.4-0.8-0.6-1.4-0.6c-0.5,0-1,0.2-1.3,0.5l-2.8-2.8c1.3-2.4,2.9-4.6,4.9-6.6c1.6-1.6,3.3-2.9,5.1-4c0.3-0.2,0.4-0.5,0.2-0.8
		c-0.2-0.3-0.5-0.4-0.8-0.2c-1.9,1.2-3.7,2.6-5.3,4.2c-0.3,0.3-0.6,0.7-1,1l-3.3-1.5c0.5-0.8,0.5-1.8-0.2-2.5c-0.8-0.8-2-0.8-2.7,0
		L3,15.6c-0.8,0.8-0.8,2,0,2.7v0c0.4,0.4,0.9,0.6,1.4,0.6c0.5,0,1-0.2,1.4-0.6l0.3-0.3l3.4,3.4c-0.3,0.6-0.6,1.2-0.8,1.8
		c-0.3,0.6-0.1,1.4,0.4,1.9l1.8,1.8l-2,2c-0.4,0.4-0.6,0.8-0.6,1.4s0.2,1,0.6,1.4c0.4,0.4,0.9,0.6,1.4,0.6c0.5,0,1-0.2,1.4-0.6l2-2
		l1.8,1.8c0.3,0.3,0.8,0.5,1.2,0.5c0.2,0,0.4,0,0.6-0.1c0.6-0.2,1.2-0.5,1.8-0.8l3.4,3.4l-0.3,0.3c-0.4,0.4-0.6,0.8-0.6,1.4
		s0.2,1,0.6,1.4c0.4,0.4,0.8,0.6,1.4,0.6c0.5,0,1-0.2,1.4-0.6l1.2-1.2c0.2-0.2,0.2-0.6,0-0.8c-0.2-0.2-0.6-0.2-0.8,0L24,36.6
		c-0.1,0.1-0.3,0.2-0.5,0.2s-0.4-0.1-0.5-0.2c-0.1-0.1-0.2-0.3-0.2-0.5c0-0.2,0.1-0.4,0.2-0.5l4.9-4.9c0.1-0.1,0.3-0.2,0.5-0.2
		c0.2,0,0.4,0.1,0.5,0.2c0.1,0.1,0.2,0.3,0.2,0.5s-0.1,0.4-0.2,0.5l-1.6,1.6c-0.2,0.2-0.2,0.6,0,0.8c0.2,0.2,0.6,0.2,0.8,0l1.6-1.6
		c0.4-0.4,0.6-0.8,0.6-1.4c0-0.5-0.2-1-0.6-1.4C29.3,29.5,28.9,29.3,28.3,29.3L28.3,29.3z M29.1,11.3c-1-1-1.7-2.3-1.9-3.6
		c2-0.6,4-0.8,5.9-0.7c0.2,0,0.4,0.2,0.4,0.4c0.1,1.9-0.1,3.9-0.7,5.9C31.3,13,30.1,12.4,29.1,11.3z M3.8,17.5
		c-0.3-0.3-0.3-0.8,0-1.1l4.9-4.9c0.1-0.1,0.3-0.2,0.5-0.2c0.2,0,0.4,0.1,0.5,0.2c0.3,0.3,0.3,0.8,0,1.1l-4.9,4.9
		C4.6,17.7,4.1,17.7,3.8,17.5z M9.9,14.1l3.3,1.5c-1.2,1.5-2.3,3-3.2,4.7l-3.2-3.2L9.9,14.1z M9.9,24.3c-0.2-0.2-0.2-0.4-0.1-0.6
		c0.2-0.5,0.4-0.9,0.6-1.4l2.5,2.5L11.7,26L9.9,24.3z M10.7,30.8c-0.3,0.3-0.8,0.3-1.1,0c-0.3-0.3-0.3-0.8,0-1.1l4.9-4.9
		c0.3-0.3,0.8-0.3,1.1,0s0.3,0.8,0,1.1L10.7,30.8z M16.8,30.6c-0.2,0.1-0.5,0-0.6-0.1l-1.8-1.8l1.2-1.2l2.5,2.5
		C17.7,30.3,17.2,30.5,16.8,30.6L16.8,30.6z M20.1,30.4c1.6-0.9,3.2-2,4.7-3.2l1.5,3.3l-3.1,3.1L20.1,30.4z"/>
	<path class="st0" d="M22.2,19.9c-0.3-0.1-0.6,0-0.8,0.3c-0.1,0.3,0,0.6,0.3,0.8c0.5,0.2,1,0.3,1.4,0.3c1.1,0,2.1-0.4,2.9-1.2
		c1.6-1.6,1.6-4.2,0-5.8c-0.8-0.8-1.8-1.2-2.9-1.2c-1.1,0-2.1,0.4-2.9,1.2c-1.1,1.1-1.5,2.8-0.9,4.3c0.1,0.3,0.4,0.5,0.8,0.3
		c0.3-0.1,0.5-0.4,0.3-0.8c-0.4-1.1-0.1-2.3,0.7-3.1c0.6-0.6,1.3-0.9,2.1-0.9c0.8,0,1.5,0.3,2.1,0.9c1.1,1.1,1.1,3,0,4.1
		C24.5,20,23.3,20.3,22.2,19.9z"/>
	<path class="st0" d="M18.4,8C20,8,21.3,6.6,21.3,5S20,2.1,18.4,2.1S15.4,3.4,15.4,5S16.8,8,18.4,8z M18.4,3.3c1,0,1.8,0.8,1.8,1.8
		s-0.8,1.8-1.8,1.8c-1,0-1.8-0.8-1.8-1.8S17.4,3.3,18.4,3.3z"/>
	<path class="st0" d="M11.3,7.5c1.3,0,2.3-1,2.3-2.3S12.6,3,11.3,3S9,4,9,5.2S10.1,7.5,11.3,7.5z M11.3,4.1c0.6,0,1.1,0.5,1.1,1.1
		s-0.5,1.1-1.1,1.1c-0.6,0-1.1-0.5-1.1-1.1S10.7,4.1,11.3,4.1z"/>
	<path class="st0" d="M15.6,34.5c-0.2-0.2-0.6-0.2-0.8,0l-0.5,0.5l-0.5-0.5c-0.2-0.2-0.6-0.2-0.8,0s-0.2,0.6,0,0.8l0.5,0.5l-0.5,0.5
		c-0.2,0.2-0.2,0.6,0,0.8c0.1,0.1,0.3,0.2,0.4,0.2c0.1,0,0.3-0.1,0.4-0.2l0.5-0.5l0.5,0.5c0.1,0.1,0.3,0.2,0.4,0.2
		c0.1,0,0.3-0.1,0.4-0.2c0.2-0.2,0.2-0.6,0-0.8l-0.5-0.5l0.5-0.5C15.9,35.1,15.9,34.8,15.6,34.5L15.6,34.5z"/>
	<path class="st0" d="M5.6,2.6C5.7,2.8,5.8,2.8,6,2.8c0.1,0,0.3-0.1,0.4-0.2l0.4-0.4l0.4,0.4c0.1,0.1,0.3,0.2,0.4,0.2S7.9,2.8,8,2.6
		C8.2,2.4,8.2,2,8,1.8L7.6,1.4L8,1c0.2-0.2,0.2-0.6,0-0.8c-0.2-0.2-0.6-0.2-0.8,0L6.8,0.6L6.4,0.2c-0.2-0.2-0.6-0.2-0.8,0
		C5.3,0.4,5.3,0.8,5.6,1L6,1.4L5.6,1.8C5.3,2,5.3,2.4,5.6,2.6z"/>
	<path class="st0" d="M7.6,35C6.2,35,5,36.1,5,37.5C5,38.9,6.2,40,7.6,40s2.5-1.1,2.5-2.5C10.1,36.1,8.9,35,7.6,35z M7.6,38.8
		c-0.7,0-1.3-0.6-1.3-1.3s0.6-1.3,1.3-1.3s1.3,0.6,1.3,1.3S8.3,38.8,7.6,38.8z"/>
	<path class="st0" d="M35.1,23.7c-1.4,0-2.5,1.1-2.5,2.5c0,1.4,1.1,2.5,2.5,2.5c1.4,0,2.5-1.1,2.5-2.5
		C37.6,24.9,36.4,23.7,35.1,23.7z M35.1,27.6c-0.7,0-1.3-0.6-1.3-1.3c0-0.7,0.6-1.3,1.3-1.3c0.7,0,1.3,0.6,1.3,1.3
		C36.4,27,35.8,27.6,35.1,27.6z"/>
</g>
</svg>
