<?xml version="1.0" encoding="utf-8"?>
<!-- Generator: Adobe Illustrator 25.0.1, SVG Export Plug-In . SVG Version: 6.00 Build 0)  -->
<svg version="1.1" id="Capa_1" xmlns="http://www.w3.org/2000/svg" xmlns:xlink="http://www.w3.org/1999/xlink" x="0px" y="0px"
	 viewBox="0 0 80 80" style="enable-background:new 0 0 80 80;" xml:space="preserve">
<style type="text/css">
	.st0{fill:url(#SVGID_1_);}
	.st1{fill:url(#SVGID_2_);}
	.st2{fill:url(#SVGID_3_);}
	.st3{fill:url(#SVGID_4_);}
</style>
<g>
	<g>
		<g>
			<linearGradient id="SVGID_1_" gradientUnits="userSpaceOnUse" x1="23.1507" y1="-19.9743" x2="101.8151" y2="58.6901">
				<stop  offset="0" style="stop-color:#00679A"/>
				<stop  offset="1" style="stop-color:#002F5F"/>
			</linearGradient>
			<path class="st0" d="M67.5,0H55.6c-6.9,0-12.5,5.6-12.5,12.5v11.9c0,6.9,5.6,12.5,12.5,12.5h11.9c6.9,0,12.5-5.6,12.5-12.5V12.5
				C80,5.6,74.4,0,67.5,0z M73.8,24.4c0,3.4-2.8,6.2-6.2,6.2H55.6c-3.4,0-6.2-2.8-6.2-6.2V12.5c0-3.4,2.8-6.2,6.2-6.2h11.9
				c3.4,0,6.2,2.8,6.2,6.2V24.4z"/>
		</g>
	</g>
	<g>
		<g>
			<linearGradient id="SVGID_2_" gradientUnits="userSpaceOnUse" x1="1.5882" y1="1.5882" x2="80.2526" y2="80.2526">
				<stop  offset="0" style="stop-color:#00679A"/>
				<stop  offset="1" style="stop-color:#002F5F"/>
			</linearGradient>
			<path class="st1" d="M24.4,0H12.5C5.6,0,0,5.6,0,12.5v11.9c0,6.9,5.6,12.5,12.5,12.5h11.9c6.9,0,12.5-5.6,12.5-12.5V12.5
				C36.9,5.6,31.3,0,24.4,0z M30.6,24.4c0,3.4-2.8,6.2-6.2,6.2H12.5c-3.4,0-6.2-2.8-6.2-6.2V12.5c0-3.4,2.8-6.2,6.2-6.2h11.9
				c3.4,0,6.2,2.8,6.2,6.2V24.4z"/>
		</g>
	</g>
	<g>
		<g>
			<linearGradient id="SVGID_3_" gradientUnits="userSpaceOnUse" x1="-19.9743" y1="23.1507" x2="58.6901" y2="101.8151">
				<stop  offset="0" style="stop-color:#00679A"/>
				<stop  offset="1" style="stop-color:#002F5F"/>
			</linearGradient>
			<path class="st2" d="M24.4,43.1H12.5C5.6,43.1,0,48.7,0,55.6v11.9C0,74.4,5.6,80,12.5,80h11.9c6.9,0,12.5-5.6,12.5-12.5V55.6
				C36.9,48.7,31.3,43.1,24.4,43.1z M30.6,67.5c0,3.4-2.8,6.2-6.2,6.2H12.5c-3.4,0-6.2-2.8-6.2-6.2V55.6c0-3.4,2.8-6.2,6.2-6.2h11.9
				c3.4,0,6.2,2.8,6.2,6.2V67.5z"/>
		</g>
	</g>
	<g>
		<g>
			<linearGradient id="SVGID_4_" gradientUnits="userSpaceOnUse" x1="1.5908" y1="1.5857" x2="80.2551" y2="80.25">
				<stop  offset="0" style="stop-color:#00679A"/>
				<stop  offset="1" style="stop-color:#002F5F"/>
			</linearGradient>
			<path class="st3" d="M76.9,64.4c-1.7,0-3.1,1.4-3.1,3.1c0,3.4-2.8,6.2-6.2,6.2H55.6c-3.4,0-6.2-2.8-6.2-6.2V55.6
				c0-3.4,2.8-6.2,6.2-6.2h11.9c2.5,0,4.7,1.5,5.7,3.7c0.7,1.6,2.5,2.3,4.1,1.6c1.6-0.7,2.3-2.5,1.6-4.1c-2-4.6-6.5-7.5-11.5-7.5
				H55.6c-6.9,0-12.5,5.6-12.5,12.5v11.9c0,6.9,5.6,12.5,12.5,12.5h11.9C74.4,80,80,74.4,80,67.5C80,65.8,78.6,64.4,76.9,64.4z"/>
		</g>
	</g>
</g>
</svg>
