<?xml version="1.0" encoding="utf-8"?>
<!-- Generator: Adobe Illustrator 25.0.1, SVG Export Plug-In . SVG Version: 6.00 Build 0)  -->
<svg version="1.1" id="Capa_1" xmlns="http://www.w3.org/2000/svg" xmlns:xlink="http://www.w3.org/1999/xlink" x="0px" y="0px"
	 viewBox="0 0 44.8 40" style="enable-background:new 0 0 44.8 40;" xml:space="preserve">
<style type="text/css">
	.st0{fill:#FCAF1C;}
</style>
<g>
	<path class="st0" d="M38,15.9c0-5.3-4.3-9.6-9.6-9.6c-1.2,0-2.4,0.2-3.6,0.7V2.4c0-1.1-0.9-2.1-2.1-2.1h-8.9
		c-0.4,0-0.7,0.3-0.7,0.7c0,0.4,0.3,0.7,0.7,0.7h8.9c0.4,0,0.7,0.3,0.7,0.7V8c0,0,0,0,0,0v3.1c0,0.4-0.3,0.7-0.7,0.7h-4.3
		c-0.3,0-0.6,0.1-0.8,0.3l-1.7,1.7l-1.7-1.7c-0.2-0.2-0.5-0.3-0.8-0.3H9.2c-0.4,0-0.7-0.3-0.7-0.7V2.4c0-0.4,0.3-0.7,0.7-0.7h2
		c0.4,0,0.7-0.3,0.7-0.7c0-0.4-0.3-0.7-0.7-0.7h-2C8,0.4,7.1,1.3,7.1,2.4v8.7c0,1.1,0.9,2.1,2.1,2.1h4.2l1.8,1.8
		c0.2,0.2,0.5,0.3,0.8,0.3s0.6-0.1,0.8-0.3l1.8-1.8h0.6c-0.3,0.9-0.4,1.8-0.4,2.7c0,1.1,0.2,2.2,0.6,3.3H2.7c-1.5,0-2.7,1.2-2.7,2.7
		v12.7c0,1.5,1.2,2.7,2.7,2.7l6.3,0l2.7,2.7c0.3,0.3,0.6,0.4,0.9,0.4s0.7-0.1,0.9-0.4l2.7-2.7h6.3c1.5,0,2.7-1.2,2.7-2.7V29
		c0-0.4-0.3-0.7-0.7-0.7s-0.7,0.3-0.7,0.7v5.6c0,0.8-0.6,1.4-1.4,1.4h-6.3c-0.4,0-0.7,0.1-0.9,0.4l-2.7,2.7l-2.7-2.7
		C9.6,36.1,9.3,36,9,36H2.7c-0.8,0-1.4-0.6-1.4-1.4V21.9c0-0.8,0.6-1.4,1.4-1.4h19.8c0.8,0,1.4,0.6,1.4,1.4v4.3
		c0,0.4,0.3,0.7,0.7,0.7c0.4,0,0.7-0.3,0.7-0.7V25c1,0.3,2.1,0.5,3.1,0.5C33.7,25.6,38,21.2,38,15.9z M22.5,19.2h-1.8
		c-0.4-1-0.7-2.1-0.7-3.3c0-0.9,0.2-1.9,0.5-2.7h2.2c1.1,0,2.1-0.9,2.1-2.1V8.4c1.1-0.5,2.3-0.8,3.6-0.8c4.6,0,8.3,3.7,8.3,8.3
		c0,4.6-3.7,8.3-8.3,8.3c-1.1,0-2.1-0.2-3.1-0.6v-1.7C25.2,20.4,24,19.2,22.5,19.2z"/>
	<path class="st0" d="M43,26.7H31.6c-1,0-1.8,0.8-1.8,1.8v7.3c0,1,0.8,1.8,1.8,1.8h3.5l1.5,1.5c0.2,0.2,0.5,0.3,0.7,0.3
		c0.3,0,0.5-0.1,0.7-0.3l1.5-1.5H43c1,0,1.8-0.8,1.8-1.8v-7.3C44.8,27.5,44,26.7,43,26.7z M43.5,35.8c0,0.3-0.2,0.5-0.5,0.5h-3.6
		c-0.3,0-0.5,0.1-0.7,0.3L37.3,38L36,36.6c-0.2-0.2-0.5-0.3-0.7-0.3h-3.6c-0.3,0-0.5-0.2-0.5-0.5v-7.3c0-0.3,0.2-0.5,0.5-0.5H43
		c0.3,0,0.5,0.2,0.5,0.5V35.8z"/>
	<path class="st0" d="M13.9,28.3l0.3-0.2l0.4-0.3c0.1-0.1,0.2-0.2,0.3-0.4s0.3-0.4,0.3-0.5c0.1-0.2,0.2-0.3,0.2-0.6
		c0.1-0.2,0.1-0.4,0.1-0.7c0-0.7-0.3-1.2-0.8-1.7c-0.5-0.4-1.2-0.7-2.1-0.7c-0.8,0-1.4,0.2-1.9,0.5c-0.5,0.4-0.7,0.7-0.7,1.1
		c0,0.2,0.1,0.4,0.2,0.5c0.1,0.1,0.3,0.2,0.5,0.2c0.1,0,0.3,0,0.4-0.1c0.1-0.1,0.2-0.2,0.3-0.3c0.1-0.1,0.2-0.2,0.4-0.3
		c0.2-0.1,0.5-0.1,0.8-0.1c0.4,0,0.8,0.1,1,0.3c0.3,0.2,0.4,0.5,0.4,0.9c0,0.2-0.1,0.4-0.2,0.6s-0.2,0.4-0.3,0.5
		c-0.1,0.1-0.3,0.2-0.5,0.4l-0.4,0.3c-0.6,0.5-0.8,1.2-0.8,2.2c0,0.3,0,0.5,0.1,0.6c0.1,0.1,0.3,0.2,0.5,0.2c0.5,0,0.7-0.2,0.7-0.5
		c0-0.5,0-0.8,0.1-1.1C13.4,28.7,13.6,28.5,13.9,28.3z"/>
	<path class="st0" d="M12.5,31.6c-0.3,0-0.5,0.1-0.6,0.3c-0.2,0.2-0.2,0.4-0.2,0.7c0,0.2,0.1,0.5,0.2,0.7c0.2,0.2,0.4,0.3,0.6,0.3
		c0.3,0,0.5-0.1,0.7-0.3c0.2-0.2,0.3-0.4,0.3-0.7c0-0.3-0.1-0.5-0.3-0.7C13,31.7,12.8,31.6,12.5,31.6z"/>
	<path class="st0" d="M27.7,16.9c0,0.4,0.2,0.5,0.7,0.5c0.2,0,0.3,0,0.5-0.1c0.1-0.1,0.2-0.2,0.2-0.4c0-0.6,0-1.6,0.1-3
		c0.1-1.4,0.1-2.4,0.1-3c0-0.2-0.1-0.4-0.3-0.6c-0.2-0.1-0.4-0.2-0.6-0.2s-0.5,0.1-0.6,0.2c-0.2,0.1-0.3,0.3-0.3,0.6
		c0,0.6,0,1.6,0.1,3C27.6,15.3,27.7,16.3,27.7,16.9z"/>
	<path class="st0" d="M28.4,20.3c0.3,0,0.5-0.1,0.7-0.3c0.2-0.2,0.3-0.4,0.3-0.7c0-0.3-0.1-0.5-0.3-0.7s-0.4-0.3-0.7-0.3
		c-0.3,0-0.5,0.1-0.7,0.3c-0.2,0.2-0.3,0.4-0.3,0.7c0,0.3,0.1,0.5,0.3,0.7C27.9,20.2,28.1,20.3,28.4,20.3z"/>
	<path class="st0" d="M21.1,3.1H10.6c-0.4,0-0.7,0.3-0.7,0.7s0.3,0.7,0.7,0.7h10.4c0.4,0,0.7-0.3,0.7-0.7S21.4,3.1,21.1,3.1z"/>
	<path class="st0" d="M21.7,6.5c0-0.4-0.3-0.7-0.7-0.7H10.6c-0.4,0-0.7,0.3-0.7,0.7c0,0.4,0.3,0.7,0.7,0.7h10.4
		C21.4,7.1,21.7,6.8,21.7,6.5z"/>
	<path class="st0" d="M10.6,8.5c-0.4,0-0.7,0.3-0.7,0.7c0,0.4,0.3,0.7,0.7,0.7h5.3c0.4,0,0.7-0.3,0.7-0.7c0-0.4-0.3-0.7-0.7-0.7
		H10.6z"/>
	<path class="st0" d="M34.9,32.2c0,0.4-0.3,0.7-0.7,0.7c-0.4,0-0.7-0.3-0.7-0.7c0-0.4,0.3-0.7,0.7-0.7
		C34.6,31.5,34.9,31.8,34.9,32.2z"/>
	<path class="st0" d="M37.8,32.2c0,0.4-0.3,0.7-0.7,0.7c-0.4,0-0.7-0.3-0.7-0.7c0-0.4,0.3-0.7,0.7-0.7
		C37.5,31.5,37.8,31.8,37.8,32.2z"/>
	<path class="st0" d="M40.8,32.2c0,0.4-0.3,0.7-0.7,0.7c-0.4,0-0.7-0.3-0.7-0.7c0-0.4,0.3-0.7,0.7-0.7
		C40.5,31.5,40.8,31.8,40.8,32.2z"/>
</g>
</svg>
