<?xml version="1.0" encoding="utf-8"?>
<!-- Generator: Adobe Illustrator 25.0.1, SVG Export Plug-In . SVG Version: 6.00 Build 0)  -->
<svg version="1.1" id="Capa_1" xmlns="http://www.w3.org/2000/svg" xmlns:xlink="http://www.w3.org/1999/xlink" x="0px" y="0px"
	 viewBox="0 0 40 40" style="enable-background:new 0 0 40 40;" xml:space="preserve">
<style type="text/css">
	.st0{fill:#07EE7F;}
</style>
<g>
	<g>
		<g>
			<path class="st0" d="M20,8.6c-5.7,0-10.3,4.6-10.3,10.3c0,3,1.3,5.8,3.5,7.7c1.6,1.6,1.5,5.1,1.4,5.1c0,0.2,0,0.3,0.2,0.5
				c0.1,0.1,0.3,0.2,0.4,0.2h9.4c0.2,0,0.3-0.1,0.4-0.2c0.1-0.1,0.2-0.3,0.2-0.5c0,0-0.2-3.5,1.4-5.1c0,0,0.1-0.1,0.1-0.1
				c2.1-2,3.4-4.7,3.4-7.6C30.3,13.2,25.7,8.6,20,8.6z M26,25.7c0,0-0.1,0.1-0.1,0.1c-1.4,1.6-1.7,4.1-1.7,5.3h-8.2
				c0-1.2-0.3-3.9-1.9-5.5c-2-1.7-3.1-4.2-3.1-6.8c0-5,4-9,9-9s9,4,9,9C29,21.5,27.9,24,26,25.7z"/>
			<path class="st0" d="M20,11.2c-0.3,0-0.6,0.3-0.6,0.6s0.3,0.6,0.6,0.6c3.7,0,6.7,3,6.7,6.7c0,0.3,0.3,0.6,0.6,0.6
				c0.3,0,0.6-0.3,0.6-0.6C28,14.8,24.4,11.2,20,11.2z"/>
			<path class="st0" d="M24.1,33.2h-8.2c-0.9,0-1.6,0.7-1.6,1.6c0,0.9,0.7,1.6,1.6,1.6h8.2c0.9,0,1.6-0.7,1.6-1.6
				C25.7,33.9,25,33.2,24.1,33.2z M24.1,35h-8.2c-0.1,0-0.3-0.1-0.3-0.3c0-0.2,0.1-0.3,0.3-0.3h8.2c0.1,0,0.3,0.1,0.3,0.3
				C24.4,34.9,24.2,35,24.1,35z"/>
			<path class="st0" d="M22.9,36.9h-5.8c-0.9,0-1.6,0.7-1.6,1.6s0.7,1.6,1.6,1.6h5.8c0.9,0,1.6-0.7,1.6-1.6
				C24.4,37.6,23.7,36.9,22.9,36.9z M22.9,38.7h-5.8c-0.1,0-0.3-0.1-0.3-0.3s0.1-0.3,0.3-0.3h5.8c0.1,0,0.3,0.1,0.3,0.3
				S23,38.7,22.9,38.7z"/>
			<path class="st0" d="M20,5.6c0.4,0,0.6-0.3,0.6-0.6V0.6C20.6,0.3,20.3,0,20,0c-0.3,0-0.6,0.3-0.6,0.6v4.3
				C19.4,5.3,19.7,5.6,20,5.6z"/>
			<path class="st0" d="M30.5,3.2c-0.3-0.2-0.7-0.1-0.9,0.1l-2.4,3.6c-0.2,0.3-0.1,0.7,0.1,0.9c0.1,0.1,0.2,0.1,0.3,0.1
				c0.2,0,0.4-0.1,0.5-0.3L30.6,4C30.8,3.8,30.8,3.4,30.5,3.2z"/>
			<path class="st0" d="M12.5,7.7c0.1,0,0.2,0,0.3-0.1C13.1,7.4,13.2,7,13,6.7l-2.3-3.6C10.5,2.8,10.1,2.8,9.8,3
				C9.5,3.1,9.4,3.6,9.6,3.8l2.3,3.6C12.1,7.7,12.3,7.7,12.5,7.7z"/>
			<path class="st0" d="M8,11.7l-3.7-2C4,9.5,3.6,9.6,3.4,9.9c-0.2,0.3-0.1,0.7,0.3,0.9l3.7,2c0.1,0,0.2,0.1,0.3,0.1
				c0.2,0,0.4-0.1,0.6-0.3C8.4,12.2,8.3,11.8,8,11.7z"/>
			<path class="st0" d="M36.6,9.9c-0.1-0.3-0.6-0.4-0.9-0.3l-3.8,2c-0.3,0.1-0.4,0.6-0.3,0.9c0.1,0.2,0.3,0.3,0.6,0.3
				c0.1,0,0.2,0,0.3-0.1l3.8-2C36.6,10.6,36.8,10.2,36.6,9.9z"/>
		</g>
	</g>
</g>
</svg>
