<?xml version="1.0" encoding="utf-8"?>
<!-- Generator: Adobe Illustrator 25.0.1, SVG Export Plug-In . SVG Version: 6.00 Build 0)  -->
<svg version="1.1" id="Layer_1" xmlns="http://www.w3.org/2000/svg" xmlns:xlink="http://www.w3.org/1999/xlink" x="0px" y="0px"
	 viewBox="0 0 40 40" style="enable-background:new 0 0 40 40;" xml:space="preserve">
<style type="text/css">
	.st0{fill:#FF3389;}
</style>
<path class="st0" d="M28.1,9.5h-2.3c-0.3,0-0.5,0.2-0.5,0.5c0,0.3,0.2,0.5,0.5,0.5c0,0,0,0,0,0h2.3c0.3,0,0.5-0.2,0.5-0.5
	S28.4,9.5,28.1,9.5z"/>
<path class="st0" d="M23.3,9.5c-0.3,0-0.5,0.2-0.5,0.5c0,0.3,0.2,0.5,0.5,0.5c0,0,0,0,0,0h0.5c0.3,0,0.5-0.2,0.5-0.5
	s-0.2-0.5-0.5-0.5H23.3z"/>
<path class="st0" d="M10.6,9.5c-0.3,0-0.5,0.2-0.5,0.5c0,0.3,0.2,0.5,0.5,0.5h10.7c0.3,0,0.5-0.2,0.5-0.5s-0.2-0.5-0.5-0.5H10.6z"/>
<path class="st0" d="M28.1,13.5h-8.5c-0.3,0-0.5,0.2-0.5,0.5c0,0.3,0.2,0.5,0.5,0.5h8.5c0.3,0,0.5-0.2,0.5-0.5
	C28.7,13.7,28.4,13.5,28.1,13.5z"/>
<path class="st0" d="M17.5,13.5c-0.3,0-0.5,0.2-0.5,0.5c0,0.3,0.2,0.5,0.5,0.5h0.1c0.3,0,0.5-0.2,0.5-0.5c0-0.3-0.2-0.5-0.5-0.5
	H17.5z"/>
<path class="st0" d="M15.5,13.5h-4.9c-0.3,0-0.5,0.2-0.5,0.5c0,0.3,0.2,0.5,0.5,0.5h4.9c0.3,0,0.5-0.2,0.5-0.5
	C16,13.7,15.8,13.5,15.5,13.5z"/>
<path class="st0" d="M28.1,17.4h-0.8c-0.3,0-0.5,0.2-0.5,0.5s0.2,0.5,0.5,0.5h0.8c0.3,0,0.5-0.2,0.5-0.5S28.4,17.4,28.1,17.4
	L28.1,17.4z"/>
<path class="st0" d="M25.4,17.4h-8.7c-0.3,0-0.5,0.2-0.5,0.5s0.2,0.5,0.5,0.5l0,0h8.7c0.3,0,0.5-0.2,0.5-0.5S25.7,17.4,25.4,17.4z"
	/>
<path class="st0" d="M10.6,18.4h4c0.3,0,0.5-0.2,0.5-0.5s-0.2-0.5-0.5-0.5h-4c-0.3,0-0.5,0.2-0.5,0.5S10.3,18.4,10.6,18.4z"/>
<path class="st0" d="M23.6,21.4h-1.9c-0.3,0-0.5,0.2-0.5,0.5s0.2,0.5,0.5,0.5h1.9c0.3,0,0.5-0.2,0.5-0.5S23.9,21.4,23.6,21.4z"/>
<path class="st0" d="M20.3,21.9c0-0.3-0.2-0.5-0.5-0.5h-4.7c-0.3,0-0.5,0.2-0.5,0.5s0.2,0.5,0.5,0.5h4.7
	C20.1,22.4,20.3,22.2,20.3,21.9z"/>
<path class="st0" d="M10.6,22.4h2.5c0.3,0,0.5-0.2,0.5-0.5s-0.2-0.5-0.5-0.5h-2.5c-0.3,0-0.5,0.2-0.5,0.5S10.3,22.4,10.6,22.4z"/>
<path class="st0" d="M23.1,25.4h-2.5c-0.3,0-0.5,0.2-0.5,0.5s0.2,0.5,0.5,0.5h2.5c0.3,0,0.5-0.2,0.5-0.5S23.4,25.4,23.1,25.4
	L23.1,25.4z"/>
<path class="st0" d="M13.2,26.3h5.5c0.3,0,0.5-0.2,0.5-0.5s-0.2-0.5-0.5-0.5h-5.5c-0.3,0-0.5,0.2-0.5,0.5S12.9,26.3,13.2,26.3z"/>
<path class="st0" d="M11.2,25.4h-0.5c-0.3,0-0.5,0.2-0.5,0.5s0.2,0.5,0.5,0.5h0.5c0.3,0,0.5-0.2,0.5-0.5S11.5,25.4,11.2,25.4z"/>
<path class="st0" d="M22.9,6.5h0.6C23.7,6.5,24,6.3,24,6c0-0.3-0.2-0.5-0.5-0.5h-0.6c-0.3,0-0.5,0.2-0.5,0.5
	C22.3,6.3,22.6,6.5,22.9,6.5z"/>
<path class="st0" d="M13.9,6.5h7c0.3,0,0.5-0.2,0.5-0.5c0-0.3-0.2-0.5-0.5-0.5h-7c-0.3,0-0.5,0.2-0.5,0.5
	C13.4,6.3,13.6,6.5,13.9,6.5L13.9,6.5z"/>
<path class="st0" d="M10.6,6.5h1.4c0.3,0,0.5-0.2,0.5-0.5c0-0.3-0.2-0.5-0.5-0.5h-1.4C10.3,5.6,10,5.8,10,6
	C10,6.3,10.3,6.5,10.6,6.5z"/>
<path class="st0" d="M23.1,29.3h-5.9c-0.3,0-0.5,0.2-0.5,0.5s0.2,0.5,0.5,0.5h5.9c0.3,0,0.5-0.2,0.5-0.5S23.4,29.3,23.1,29.3z"/>
<path class="st0" d="M15.2,29.3h-2.2c-0.3,0-0.5,0.2-0.5,0.5s0.2,0.5,0.5,0.5h2.2c0.3,0,0.5-0.2,0.5-0.5S15.5,29.3,15.2,29.3z"/>
<path class="st0" d="M11,29.3h-0.4c-0.3,0-0.5,0.2-0.5,0.5s0.2,0.5,0.5,0.5H11c0.3,0,0.5-0.2,0.5-0.5S11.3,29.3,11,29.3z"/>
<path class="st0" d="M8.5,3.3C8.2,3.3,8,3.5,8,3.7v0.5c0,0.3,0.2,0.5,0.5,0.5c0.3,0,0.5-0.2,0.5-0.5V3.7C9.1,3.5,8.8,3.3,8.5,3.3z"
	/>
<path class="st0" d="M8.5,5.6C8.2,5.6,8,5.8,8,6.1V14c0,0.3,0.2,0.5,0.5,0.5c0.3,0,0.5-0.2,0.5-0.5V6.1C9.1,5.8,8.8,5.6,8.5,5.6z"/>
<path class="st0" d="M36.1,23.9l-4.4,3.9l-1.5-1.3c-0.2-0.2-0.6-0.2-0.8,0c-0.2,0.2-0.2,0.5,0,0.7l1.9,1.7c0.2,0.2,0.6,0.2,0.8,0
	l4.8-4.3c0.2-0.2,0.2-0.5,0-0.7C36.7,23.8,36.3,23.8,36.1,23.9L36.1,23.9z"/>
<path class="st0" d="M33.5,20.4C33.5,20.4,33.5,20.4,33.5,20.4l0-13c0-0.3-0.2-0.7-0.4-0.9l-6.6-6C26.2,0.1,25.8,0,25.4,0H6.9
	C6.1,0,5.4,0.6,5.4,1.3v1.2H4c-0.8,0-1.5,0.6-1.5,1.3v0.7H1.5C0.7,4.6,0,5.2,0,5.9v32.8C0,39.4,0.7,40,1.5,40h25.2
	c0.8,0,1.5-0.6,1.5-1.3v-0.8h1.1c0.8,0,1.5-0.6,1.5-1.3v-1.1H32c0.8,0,1.5-0.6,1.5-1.3v-1.7c3.8-0.1,6.7-3,6.5-6.3
	C39.8,23,37,20.5,33.5,20.4L33.5,20.4z M26.2,1.5l5.5,5h-2.9c-1.5,0-2.7-1.1-2.7-2.4L26.2,1.5z M27.1,38.7c0,0.2-0.2,0.4-0.4,0.4
	H1.5c-0.2,0-0.4-0.2-0.4-0.4V5.9c0-0.2,0.2-0.4,0.4-0.4h1.1v31c0,0.7,0.7,1.3,1.5,1.3h23L27.1,38.7z M29.6,36.6
	c0,0.2-0.2,0.4-0.4,0.4H4c-0.2,0-0.4-0.2-0.4-0.4V3.9c0-0.2,0.2-0.4,0.4-0.4h1.4v30.7c0,0.7,0.7,1.3,1.5,1.3h22.7L29.6,36.6z
	 M32.8,31.5c-3.2-0.2-5.6-2.6-5.4-5.4c0-0.7,0.3-1.4,0.6-2c0.1-0.2,0.1-0.4-0.1-0.5c-0.2-0.2-0.6-0.2-0.8,0c0,0-0.1,0.1-0.1,0.1
	c-1.7,3-0.3,6.6,3,8.1c0.7,0.3,1.5,0.5,2.3,0.6v1.8c0,0.2-0.2,0.4-0.4,0.4H6.9c-0.2,0-0.4-0.2-0.4-0.4V1.3C6.5,1.1,6.7,1,6.9,1h18.2
	v3.2c0,1.8,1.7,3.3,3.7,3.3h3.6v12.9c-0.9,0.1-1.8,0.4-2.7,0.8c-0.3,0.1-0.3,0.4-0.2,0.7c0,0,0.1,0.1,0.1,0.1
	c0.2,0.2,0.4,0.2,0.6,0.1c2.7-1.4,6.3-0.6,7.9,1.8s0.7,5.6-2.1,7C35.1,31.3,33.9,31.6,32.8,31.5L32.8,31.5z"/>
</svg>
