<?xml version="1.0" encoding="utf-8"?>
<!-- Generator: Adobe Illustrator 25.0.1, SVG Export Plug-In . SVG Version: 6.00 Build 0)  -->
<svg version="1.1" id="Capa_1" xmlns="http://www.w3.org/2000/svg" xmlns:xlink="http://www.w3.org/1999/xlink" x="0px" y="0px"
	 viewBox="0 0 40 40" style="enable-background:new 0 0 40 40;" xml:space="preserve">
<style type="text/css">
	.st0{fill:#FF650B;}
</style>
<path class="st0" d="M38.8,12.6v-2.6c0-1-0.8-1.8-1.8-1.8h-3.7c-1,0-1.8,0.8-1.8,1.8v2.6c-0.7,0.1-1.2,0.7-1.2,1.4v0.8
	c0,0.7,0.5,1.3,1.2,1.4v15.7c0,0,0,0,0,0c0,0,0,0,0,0c0,0.3,0.1,0.5,0.2,0.7l2.2,3.5c0.3,0.4,0.7,0.6,1.2,0.6s0.9-0.2,1.2-0.6
	l2.2-3.5c0.1-0.2,0.2-0.5,0.2-0.7c0,0,0,0,0,0c0,0,0,0,0,0V16.1c0.7-0.1,1.2-0.7,1.2-1.4V14C40,13.3,39.5,12.7,38.8,12.6z M33.4,9.5
	h3.7c0.3,0,0.6,0.3,0.6,0.6v2.5h-4.8v-2.5C32.8,9.8,33.1,9.5,33.4,9.5z M37.7,16.1v13.7c-0.3-0.2-0.7-0.3-1.1-0.3h-0.7V18.3
	c0-0.3-0.3-0.6-0.6-0.6s-0.6,0.3-0.6,0.6v11.3H34c-0.4,0-0.8,0.1-1.1,0.3V16.1H37.7z M32.8,32c0,0,0-0.1,0-0.1
	c0-0.6,0.5-1.1,1.1-1.1h2.6c0.6,0,1.1,0.5,1.1,1.1c0,0,0,0.1,0,0.1l-0.6,1h-3.6L32.8,32z M35.4,35.5c-0.1,0.1-0.1,0.1-0.2,0.1
	s-0.1,0-0.2-0.1l-0.9-1.3h2L35.4,35.5z M38.8,14.8c0,0.1-0.1,0.2-0.2,0.2h-6.8c-0.1,0-0.2-0.1-0.2-0.2V14c0-0.1,0.1-0.2,0.2-0.2h6.8
	c0.1,0,0.2,0.1,0.2,0.2V14.8z"/>
<path class="st0" d="M27.5,8.3H9.3C9.1,6,7.1,4.2,4.7,4.2C2.1,4.2,0,6.3,0,8.8l0,4.4c0,0.3,0.3,0.6,0.6,0.6h0c0.3,0,0.6-0.3,0.6-0.6
	l0-4.4c0-1.9,1.6-3.5,3.5-3.5c1.9,0,3.5,1.6,3.5,3.5l0,19.8c-0.9-1-2.1-1.6-3.5-1.6c-1.4,0-2.7,0.6-3.5,1.6l0-12.7
	c0-0.3-0.3-0.6-0.6-0.6h0c-0.3,0-0.6,0.3-0.6,0.6l0,15.8c0,0,0,0,0,0c0,0,0,0,0,0c0,2.6,2.1,4.7,4.7,4.7l22.8,0c1,0,1.8-0.8,1.8-1.8
	V10.1C29.3,9.1,28.5,8.3,27.5,8.3z M28.1,34.8c0,0.3-0.3,0.6-0.6,0.6l-22.8,0c-1.9,0-3.5-1.6-3.5-3.5c0,0,0,0,0,0c0,0,0,0,0,0v0
	c0,0,0,0,0,0c0-1.9,1.6-3.5,3.5-3.5c1.9,0,3.5,1.6,3.5,3.5v0c0,0.3,0.3,0.6,0.6,0.6h0c0.3,0,0.6-0.3,0.6-0.6v0l0-22.3h18.2
	c0.3,0,0.6,0.3,0.6,0.6V34.8z"/>
<path class="st0" d="M26,12.6H11.5c-0.5,0-1,0.4-1,1v9.2c0,0.5,0.4,1,1,1H26c0.5,0,1-0.4,1-1v-9.2C27,13.1,26.5,12.6,26,12.6z
	 M11.7,14.3l6,3.9l-6,3.9V14.3z M13.1,13.8h11.3l-5.7,3.7L13.1,13.8z M18.8,18.9l5.7,3.7H13.1L18.8,18.9z M19.8,18.2l6-3.9v7.8
	L19.8,18.2z"/>
<path class="st0" d="M16.1,25h-4.6c-0.5,0-1,0.4-1,1v5.5c0,0.5,0.4,1,1,1h4.6c0.5,0,1-0.4,1-1v-5.5C17.1,25.4,16.7,25,16.1,25z
	 M15.9,31.3h-4.2v-5.2h4.2V31.3z"/>
<path class="st0" d="M26.4,25.8h-7.5c-0.3,0-0.6,0.3-0.6,0.6c0,0.3,0.3,0.6,0.6,0.6h7.5c0.3,0,0.6-0.3,0.6-0.6
	C27,26,26.7,25.8,26.4,25.8z"/>
<path class="st0" d="M26.4,28.1h-7.5c-0.3,0-0.6,0.3-0.6,0.6c0,0.3,0.3,0.6,0.6,0.6h7.5c0.3,0,0.6-0.3,0.6-0.6
	C27,28.4,26.7,28.1,26.4,28.1z"/>
<path class="st0" d="M24,30.5h-5.2c-0.3,0-0.6,0.3-0.6,0.6c0,0.3,0.3,0.6,0.6,0.6H24c0.3,0,0.6-0.3,0.6-0.6
	C24.6,30.7,24.3,30.5,24,30.5z"/>
</svg>
